<svg width="24" height="24" viewBox="0 0 24 24" fill="none" xmlns="http://www.w3.org/2000/svg">
<path d="M14.4301 18.8218C14.2401 18.8218 14.0501 18.7518 13.9001 18.6018C13.6101 18.3118 13.6101 17.8318 13.9001 17.5418L19.4401 12.0018L13.9001 6.46183C13.6101 6.17183 13.6101 5.69183 13.9001 5.40183C14.1901 5.11183 14.6701 5.11183 14.9601 5.40183L21.0301 11.4718C21.3201 11.7618 21.3201 12.2418 21.0301 12.5318L14.9601 18.6018C14.8101 18.7518 14.6201 18.8218 14.4301 18.8218Z" fill="white"/>
<path d="M20.331 12.748H3.50098C3.09098 12.748 2.75098 12.408 2.75098 11.998C2.75098 11.588 3.09098 11.248 3.50098 11.248H20.331C20.741 11.248 21.081 11.588 21.081 11.998C21.081 12.408 20.741 12.748 20.331 12.748Z" fill="white"/>
</svg>
