<svg width="24" height="24" viewBox="0 0 24 24" fill="none" xmlns="http://www.w3.org/2000/svg">
<path d="M9.56988 18.8218C9.75988 18.8218 9.94988 18.7518 10.0999 18.6018C10.3899 18.3118 10.3899 17.8318 10.0999 17.5418L4.55988 12.0018L10.0999 6.46183C10.3899 6.17183 10.3899 5.69183 10.0999 5.40183C9.80988 5.11183 9.32988 5.11183 9.03988 5.40183L2.96988 11.4718C2.67988 11.7618 2.67988 12.2418 2.96988 12.5318L9.03988 18.6018C9.18988 18.7518 9.37988 18.8218 9.56988 18.8218Z" fill="white"/>
<path d="M3.66903 12.748H20.499C20.909 12.748 21.249 12.408 21.249 11.998C21.249 11.588 20.909 11.248 20.499 11.248H3.66903C3.25903 11.248 2.91903 11.588 2.91903 11.998C2.91903 12.408 3.25903 12.748 3.66903 12.748Z" fill="white"/>
</svg>
