<svg width="40" height="40" viewBox="0 0 40 40" fill="none" xmlns="http://www.w3.org/2000/svg">
<path d="M24.9258 25.1463L27.3377 24.5L28.757 29.785L29.5127 28.5C30.6311 26.5686 31.1875 24.3631 31.119 22.1323C31.0506 19.9014 30.36 17.7342 29.1252 15.875L32.1983 13.7238C33.7611 16.0465 34.6758 18.7442 34.848 21.5385C35.0201 24.3328 34.4435 27.1224 33.1777 29.6194L32.5352 30.875L36.5245 29.8006L37.1689 32.215L27.5108 34.8031L24.9258 25.1463Z" fill="#020818"/>
<path d="M6.57959 16.1638C7.80991 13.6489 9.68895 11.5078 12.0228 9.96145C14.3567 8.41509 17.0609 7.51943 19.8565 7.36688L21.2652 7.29625L18.3402 4.37938L20.109 2.61438L27.1808 9.68313L20.1102 16.75L18.3421 14.9863L22.2096 11.1144L20.6208 11.1013C18.4018 11.099 16.2269 11.7214 14.345 12.8972C12.463 14.073 10.95 15.7547 9.97896 17.75L6.57959 16.1638Z" fill="#020818"/>
<path d="M20.2908 37.125C17.6796 37.1313 15.1088 36.4805 12.8152 35.2326C10.5215 33.9846 8.57875 32.1796 7.16578 29.9837L6.40016 28.7962L5.33766 32.7881L2.92578 32.1437L5.51141 22.485L15.167 25.075L14.5233 27.4875L9.23703 26.075L9.97078 27.3712C11.0081 29.1948 12.5099 30.7111 14.3236 31.7656C16.1372 32.8202 18.1978 33.3755 20.2958 33.375C20.562 33.375 20.8302 33.3656 21.0977 33.3475L21.4245 37.0844C21.047 37.1131 20.6677 37.125 20.2908 37.125Z" fill="#020818"/>
</svg>
