<svg width="164" height="17" viewBox="0 0 164 17" fill="none" xmlns="http://www.w3.org/2000/svg">
<path d="M4.90633 16.6334V3.29919H0V0.366576H13.3767V3.29919H8.44722V16.6334H4.90633Z" fill="#020818"/>
<path d="M15.4258 16.6334V0.366576H26.8584V3.29919H18.9435V7.03369H26.5807V9.92048H18.9435V13.7008H27.0436V16.6334H15.4258Z" fill="#020818"/>
<path d="M28.1561 16.6334L33.7336 8.47709L28.2024 0.366576H32.2756L35.8627 5.84232L39.3573 0.366576H43.4537L37.9225 8.43127L43.5231 16.6334H39.4268L35.8164 11.066L32.2524 16.6334H28.1561Z" fill="#020818"/>
<path d="M45.067 16.6334V0.366576H51.6396C53.6145 0.366576 55.1574 0.840071 56.2682 1.78706C57.3945 2.73405 57.9577 4.03234 57.9577 5.68194C57.9577 6.7664 57.7031 7.71339 57.194 8.52291C56.7002 9.31716 55.9751 9.93576 55.0185 10.3787C54.0774 10.8064 52.9511 11.0202 51.6396 11.0202H48.5847V16.6334H45.067ZM48.5847 8.0876H51.4313C52.3571 8.0876 53.0745 7.88904 53.5836 7.49191C54.0928 7.07951 54.3474 6.47619 54.3474 5.68194C54.3474 4.90296 54.0928 4.31491 53.5836 3.91779C53.0899 3.50539 52.3725 3.29919 51.4313 3.29919H48.5847V8.0876Z" fill="#020818"/>
<path d="M57.1683 16.6334L63.0929 0.366576H67.2587L73.1833 16.6334H69.5267L68.3232 13.1739H62.0052L60.8018 16.6334H57.1683ZM63.0003 10.31H67.3512L65.1758 4.03234L63.0003 10.31Z" fill="#020818"/>
<path d="M80.3466 17C79.0198 17 77.8472 16.7862 76.8289 16.3585C75.8106 15.9308 75.0006 15.3351 74.3988 14.5714C73.8126 13.7925 73.4963 12.8913 73.45 11.8679L77.0372 11.7305C77.0989 12.4331 77.4306 12.9982 78.0323 13.4259C78.634 13.8535 79.4132 14.0674 80.3698 14.0674C81.3881 14.0674 82.1826 13.8459 82.7535 13.403C83.3398 12.96 83.6329 12.3643 83.6329 11.6159C83.6329 11.066 83.4864 10.6155 83.1932 10.2642C82.9001 9.91285 82.5221 9.65319 82.0592 9.48518C81.5964 9.30189 81.1026 9.21788 80.5781 9.23315L78.9118 9.25606V6.82749L80.5781 6.8504C81.0101 6.8504 81.4112 6.78167 81.7815 6.6442C82.1672 6.49146 82.4758 6.26235 82.7072 5.95687C82.9541 5.63612 83.0775 5.22372 83.0775 4.71968C83.0775 4.15454 82.8229 3.71923 82.3138 3.41375C81.8201 3.09299 81.1412 2.93261 80.2772 2.93261C79.444 2.93261 78.7652 3.08535 78.2406 3.39084C77.7315 3.68104 77.446 4.07817 77.3843 4.58221L73.8203 4.42183C73.9283 3.53594 74.2677 2.7646 74.8386 2.10782C75.4249 1.43576 76.1886 0.916442 77.1297 0.549865C78.0709 0.183288 79.1432 0 80.3466 0C81.6272 0 82.7381 0.175651 83.6792 0.526954C84.6358 0.878257 85.3764 1.37466 85.901 2.01617C86.441 2.64241 86.711 3.3832 86.711 4.23854C86.711 4.98697 86.5104 5.62848 86.1093 6.16307C85.7235 6.69766 85.1527 7.12534 84.3967 7.44609C83.6561 7.75157 82.7535 7.9425 81.6889 8.01887L81.7352 7.6752C82.9078 7.75157 83.9029 7.98068 84.7207 8.36253C85.5538 8.72911 86.1864 9.24079 86.6184 9.89757C87.0504 10.5391 87.2664 11.2951 87.2664 12.1658C87.2664 13.128 86.9733 13.9757 86.387 14.7089C85.8161 15.4268 85.0138 15.9919 83.9801 16.4043C82.9464 16.8014 81.7352 17 80.3466 17Z" fill="#020818"/>
<path d="M89.6192 16.6334V0.366576H96.0067C98.0433 0.366576 99.6016 0.725516 100.682 1.4434C101.762 2.146 102.302 3.26101 102.302 4.78841C102.302 5.46047 102.163 6.04852 101.885 6.55256C101.607 7.04133 101.198 7.43082 100.658 7.72102C100.134 8.01123 99.4936 8.18688 98.7376 8.24798V8.20216C100.111 8.2938 101.16 8.69092 101.885 9.39353C102.626 10.0809 102.996 10.9973 102.996 12.1429C102.996 13.655 102.456 14.7853 101.376 15.5337C100.311 16.2668 98.7839 16.6334 96.7936 16.6334H89.6192ZM93.137 13.7925H96.6316C97.4802 13.7925 98.159 13.6244 98.6682 13.2884C99.1927 12.9371 99.455 12.4178 99.455 11.7305C99.455 11.0431 99.1927 10.5238 98.6682 10.1725C98.159 9.80593 97.4802 9.62264 96.6316 9.62264H93.137V13.7925ZM93.137 7.10243H95.9141C96.7782 7.10243 97.4647 6.93441 97.9739 6.59838C98.4985 6.26235 98.7607 5.78122 98.7607 5.15499C98.7607 4.48293 98.5062 3.99416 97.997 3.68868C97.5033 3.36792 96.809 3.20755 95.9141 3.20755H93.137V7.10243Z" fill="#020818"/>
<path d="M119.365 16.6334H115.848V5.7965L109.368 16.6334H105.433V0.366576H108.951V11.593L115.5 0.366576H119.365V16.6334Z" fill="#020818"/>
<path d="M125.098 16.6334V3.29919H120.192V0.366576H133.569V3.29919H128.639V16.6334H125.098Z" fill="#020818"/>
<path d="M149.504 16.6334H145.986V5.7965L139.506 16.6334H135.572V0.366576H139.089V11.593L145.639 0.366576H149.504V16.6334Z" fill="#020818"/>
<path d="M152.382 16.6334V0.366576H163.815V3.29919H155.9V7.03369H163.537V9.92048H155.9V13.7008H164V16.6334H152.382Z" fill="#020818"/>
</svg>
